<svg width="16" height="16" viewBox="0 0 16 16" fill="none" xmlns="http://www.w3.org/2000/svg">
<path d="M2 11.3333H9.33333M9.33333 11.3333C9.33333 12.4379 10.2288 13.3333 11.3333 13.3333C12.4379 13.3333 13.3333 12.4379 13.3333 11.3333C13.3333 10.2288 12.4379 9.33333 11.3333 9.33333C10.2288 9.33333 9.33333 10.2288 9.33333 11.3333ZM6 4.66667H13.3333M6 4.66667C6 5.77124 5.10457 6.66667 4 6.66667C2.89543 6.66667 2 5.77124 2 4.66667C2 3.5621 2.89543 2.66667 4 2.66667C5.10457 2.66667 6 3.5621 6 4.66667Z" stroke="#14142B" stroke-linecap="round"/>
</svg>
